# xmcd CD database file
#
# Track frame offsets:
#	150
#	14489
#	29338
#	42635
#	56171
#	81339
#	95616
#	109886
#	123963
#	137461
#	148342
#	160365
#	172925
#	184728
#	197738
#	208785
#	222411
#	237949
#	250016
#	265543
#	280922
#
# Disc length: 3913 seconds
#
# Revision: 0
# Processed by: cddbd v1.5.1PL0 Copyright (c) Steve Scherf et al.
# Submitted via: CDex 1.51
#
DISCID=3c0f4715
DTITLE=Charlie Parker - "THE QUINTETS, 1945-1951"and"COLLABORATIONS"
DYEAR=2002
DGENRE=Jazz
TTITLE0=Billie's Bounce
TTITLE1=Now's The Time
TTITLE2=Ko Ko
TTITLE3=Cheryl
TTITLE4=Confirmation
TTITLE5=Dewey Square
TTITLE6=All The Things You Are
TTITLE7=Klactoveedsedtene
TTITLE8=Scrapple From The Apple
TTITLE9=Donna Lee
TTITLE10=Another Hair-Do
TTITLE11=Klaunstance
TTITLE12=Bird Gets The Worm
TTITLE13=Ah-Leu-Cha
TTITLE14=Constellation
TTITLE15=Passport
TTITLE16=Bloomdido
TTITLE17=Au Private
TTITLE18=K.C. Blues
TTITLE19=Lover Man
TTITLE20=Blues For Alice
EXTD=YEAR: 2002
EXTT0=
EXTT1=
EXTT2=
EXTT3=
EXTT4=
EXTT5=
EXTT6=
EXTT7=
EXTT8=
EXTT9=
EXTT10=
EXTT11=
EXTT12=
EXTT13=
EXTT14=
EXTT15=
EXTT16=
EXTT17=
EXTT18=
EXTT19=
EXTT20=
PLAYORDER=
